<?xml version="1.0" encoding="UTF-8"?><svg id="Layer_1" xmlns="http://www.w3.org/2000/svg" viewBox="0 0 1174.79 149.43"><defs><style>.cls-1{fill:#282428;}.cls-2{fill:#010202;}.cls-3{fill:#0b0e16;}</style></defs><path class="cls-2" d="M1161.72,55.64c.26.12,1.2-.27,1.44.07.41.59-.13,2.25.12,3.23.15.59,1.23.46,1.47,1.12.43,1.2-.14,2.96.86,4.39,1.27,1.81,4.08.1,3.03,4.26,1.48,1.87,3.51-6.99,6.15-6.15v11.53c-6.09-.4.38,10.7-7.84,6.85-2.35-1.1-2.53-4.06-3.38-5.28-.44-.64-1.41-.72-1.86-1.38-.58-.86-2.07-4.52-2.4-4.75-.48-.34-4.25,1.97-5.28-.45-.25-.58,3.62-.94,4.28-1.89,1.4-2.02-2.32-5.59,1.06-5.46.09-.12-1.27-2.36-1.46-2.52-1.14-.98-2.72.17-2.34-1.66,1.7-2.47,3.94-.96,6.14-1.93ZM1162.11,59.48v.77c.5-.26.5-.51,0-.77Z"/><path class="cls-2" d="M0,47.18l3.83-3.84c.12,1.96,1.65,2.97,2.06,4.85.75,3.44-2.13,6.2-2,6.97.12.69,6.11,4.85,6.86,5.09,1.04,7.48-2.92,1.31-3.84,2.31-1.2,4.36.39,7.48,1.53,11.53-.25.25-2.91-.31-3.39-.68-1-.79.26-2.59-1.22-2.39l.77,8.46H0v-32.29Z"/><path class="cls-2" d="M852.65,52.56c.05-.26,2.08-4.67,2.24-4.88.6-.8,2.16-.4,3.09-1.7,1.2-1.67-.14-4.22,2.75-3.43.42.12-.04,1.54,1.55,1.58.58.01,2.39-1.63,2.44-1.77.74-1.95-.8-4.95-.54-5.18.78-.68,3.45,1.78,1.54-3.07,2.03.18,3.03,2.19,5.38,1.53.21-1.66-1.38-2.41-1.34-4.09.07-2.84,2.64-1.86,2.85-2.07.86-.89-3.03-7.48,1.91-6.91,1.51.17,3.46,2.49,5.81,1.54-2.81-5.2,1.68-3.76,2.31-4.61.72-.96-4.15-5.78,3.84-3.06l-.77,3.06h2.31c.87,3.85-2.83,2.48-3.71,3.21-.79.66-.52,6.34-.1,6.75,1.03,1,5.08-2.31,3.8,3.88-2.02.53-1.74-1.94-2.83-2.32-4.11-1.42-2.87,3.64.99,3.84,2.62.14,2.79-1.21,4.91-1.52.68.69-6.1,9.86,3.07,7.69-.43,2.45-2.16,4.17-1.53,6.91,7.21-1.57.89,1.25.37,2.29-.49.99-.42,2.04-.37,3.09,3.61-1.93,2.53,1.58,6.14.77-1.03,2.79-2.25,3.76-.76,6.91,1.76.22,2.12-1.51,3.64-2.13.78-.32,2.33-.04,2.51-.18.11-.09-1.03-1.5-.46-2.33.45-.67,2.19-.52,1.99-1.13-.66-1.99-7.93-3.08-7.69-6.53,5.07-2.68,9.67.72,15.01,0,1.04-.14,2.44-.56,1.14-1.53-2.01.42-7.52-2.8-8.55-4.21-.97-1.32.18-2.36-.28-3.46-.52-1.25-3.09-1.91-2.7-3.87l7.68.76-3.07-4.61c4.3,2.1,4.1-1.13,7.69-.77.59-2.34-2.28-1.38-2.94-3.6-.38-1.27-.1-2.76-.14-4.08l3.44,1.54-.37-3.08c6.3,2.45,7.16,2.15,3.05-3.44-1.24-1.69,1.02-3.51,1.24-3.51,1.38-.01,4.92,3.07,5.69,2.34l-.76-3.07,3.07.77c.93-1.3-.25-6.68,0-6.92.21-.19,1.91.29,2.22-.05.4-.45-.27-2.59.45-3.82s4.44-1.21,4.26-3.82c2.44-.68,2.03,2.8,2.3,3.08.32.32,3.32-1.29,3.83-.77.42.42-.63,2.29-.62,2.88.05,3,3.43.66,3.69.96.99,1.15-2.26,5.89,3.09,4.61.93,2.01-2.71,5.33-.34,6.1,4.4,1.42,1.92-2.87,2.64-3.79,1.31-1.65,1.74,3.14,3.07,1.53.73-.89-1.01-4.48-.68-5.65.8-2.85,7.88-1.34,6.07-5.89,4.47.65,7.48,3.55,3.84,7.69,1.58.57,4.2-2.35,5.37-1.53.35.25,1.59,7.36,2.54,8.28.73.7,2.29,1.58,3.96,3.31,2.22,2.3,4.66,1.38,1.2,6.08,2.73-1.87,6.8,1.19,6.04,4.08-.36,1.37-4.38,3.91-3.73,6.69,2.7.74,5.16-1.02,7.42-1.23,2.12-.2,5.43.64,6.69.49.22-.03,1.11-2.72,3.57-1.57.61-2.45-1.43-.89-2.36-2.02-.32-.39-1.01-2.33-.72-2.59h3.07s-.77-2.3-.77-2.3l3.84.76v-3.85c3.08-.84,6.64,1,6.92,4.27.1,1.12-1.18,3.73-.75,4.17.17.17,2.1-.13,2.72.73.96,1.34-.04,4.26.28,5.79.16.79,1.75.12,2.2.58.37.38-.03,1.56.33,1.99.11.13,5.34.8.61,1.69-.42-.17-1.26.71-1.54.77-.67.13-1.57-.12-2.31,0-.54,1.28.66,1.91.77,2.3.63,2.35.35,1.93,0,3.84-.51,2.78-.29,3.41-3.84,3.07l.76-3.06c-2.19-.38-1.82,1.37-2.3,2.3-1.79,3.49-3.91,4.06-4.68,5.08-2.32,3.08-1.99,6.9-.71,10.29-3.9-1.81-3.96.75-4.22.8-3.1.6-5.61-7.32-4.24-10.02-.32-.43-4.56,3.67-5.1,3.76-.86.14-3.16-2.2-4.89-1.45l1.55-4.98c-1.48-1.64-1.43.56-2.11,1.13-1.08.91-4.25,3.77-5.25,3.88-1.3.15-2.57-.72-3.68-.57-1.22.17-1.98,1.63-4.75,1.38-1.86-.17-2.69-1.59-3.82-1.64-.29-.01-1.25,3.84-4.62.04-2.7,1.75.56,7.66.31,8.67-.41,1.69-4.78,5.05-3.78.54-1.29,3.24-8.15-1.73-8.88-3.07-1.02-1.87.92-2.62,1.17-4.27.33-2.12-.3-7.88-2.66-8.8-.94.36-1.94,3.53-2.1,3.66-.61.5-1.94.03-2.11.19-1.33,1.21,4.55,7.05,1.09,8.41-4.31.94-7.67-9.38-9.55-7.65.44,4.07-5.24,5.44-3.08,9.22-8.01-1.9-4.82,1-7.63,4.91-.29.41-4.51,2.2-5.09,2.74-.16.15-2.58,3.46-2.63,3.68-.77,3.57,1.92,4.6-3.87,4.07-.53,1.84,2.69,2.77,2.3,4.21-.12.43-6.41,4.67-7.68,3.47.96-1.7.09-3.47.25-4.85s2.29-1.75.57-4.03c-2.65-3.51-8.04-.67-8.51-1.11-.22-2.07,3.02-3.8,2.93-5.63-.18-3.49-4.03-2.5-4.47-2.83-.11-.08.83-1.65.8-2.66-.2-7.3-3.75-2.49-4.64-3.48-.36-.4.94-5.15-2.31-4.61.72,3.27-2.66,3.24-1.55,6.91l-3.84-1.53c1.91,4.76-.68,2.17-1.93,3.82s-.69,5.45-4.62,6.94c-.76-2.78-1.97-1.03-4.21-.77.05-.97-.27-2.3.32-3.13,1.03-1.45,4.13.49,3.51-2.25-1.75.96-4.69-.23-5.37-1.94-.83-2.1,3.23-.02,2.3-2.68-6.12.74-2.54-4.51-3.85-8.46-2.83.13-4.3,1.8-3.84,4.61-1.37.44-1.78-1.13-2.79-1.33-1.34-.26-2.98,1.24-5.15-.15-1.94-1.24-.44-3.57-.54-5.04-.1-1.65-1.03-3.46-.75-5.01ZM989.5,41.01c2.36-3.35-7.22-1.3-7.68-.74-.17.2.1,1.66,0,2.29.69.71,7.04-.63,7.69-1.55ZM869.18,44.1v.77c.5-.26.5-.51,0-.77ZM871.1,48.72c-.3-.32-7.24-1.91-8.45-2.31-1.57,1.51,5.49,5.15,6.68,5.26,1.76.16,2.25-2.45,1.78-2.95Z"/><path class="cls-2" d="M645.06,74.09c.52.26,2.89.93,3.07.77l.8-3.83c11.15,4.26,3.56-4.61,4.75-7.54.28-.69,3.92-2.34,4.5-3.02,3.14-3.62-.27-8.2,7.63-3.29.31-2.06,3.51-10.93,5.02-11.53,1.81-.73,1.02,2.68,2.12,3.64.5.44,2.63.36,2.87,1.36s-2.73,2.66-1.15,4.99c.5.73,2.65.59,1.92,3.07,3.24-2.47,6.39-2.73,6.15-7.69l3.06.77c-1.22-7.81,2.2-4.53,3.09-5.37.19-.18-.19-3.81.04-4.96.36-1.82,1.46-2.82,1.91-4.26.31-1.01-.56-2.29-.07-3.08.95-1.57,5.12-1.82,5.88-2.82,1.13-1.48-.29-3.61-.09-5.1.03-.23,3.09-3.3,3.3-3.39,2.86-1.26,3.3,1.46,2.87-4.84,3.49-.7,1.71,1.32,2.45,2.12.41.44,1.89.15,2.54.94,2.04,2.51-1.01,9.26,5.76,7.71l-3.07,4.61,6.14-1.53c.56,2.55-3.32,2.38-2.99,4.11.05.27,2.78,4.52,3,4.7.94.79,3.44.82,3.74,1.28.55.82-.04,5.98.46,7.64.05.17,1.84,2.9,1.99,2.99.45.25,1.81-1.31,2.76-1.39,1.3-.11,1.82,1.83,3.33,1.43.03-1.05-.21-2.87.72-3.51,4.1-2.86,3.83,3.91,3.13,6.59,3.37-.65,4.72,1.16,1.55,2.69,1.36,1.98,3.1,2.15,5.38,1.93.62,2.54-1.83,1.03-3.08,1.9-.79.56-1.14,2.28-.76,2.7.2.22,5.56-.5,5.79-.67,1.37-1.02,1.51-3.26,2.36-4.64.29-.47,1.25-.61,1.61-1.1.48-.66.11-1.92.23-2.04.3-.32,2.79,1.09,3.06.77.1-.11.08-1.94.48-2.99,2.75-7.35,3.12-.15,4.28.56.71.44,2.31-.2,2.83.21.63.49,1.15,5.02.11,6.05,4.32-1.08,5.14,1.76,3.84,5.39-3.45.38-2.68,3.51-.75,1.93.7-.58.54-1.32.75-1.93,1.2-.13,3.26,2.58,5.21,2.48,1.55,1.46.41,6.9.18,9.05,4.92,1.07,1.22-3.42,6.15-2.31l-2.3-4.61c5.54.47,3.02-.25,4.05-3.23,1.5-4.35,4.43-5.11,7.05-7.55,1.07-1,1.97-3.08,1.98-4.59,1.35-.38,1.93,1.2,2.81,1.36,3.37.61,1.81-1.86,2.18-2.83,4.74-12.19,7.44-.8,9.58.35s4.42.46,3.14-2.37c-2.81-6.22-1.21-2.93,1.51-8.03,7.41.88,1.72,11,2.4,12.18.16.28,5,3.5,5.31,3.59,1.23.39,1.99-.44,2.58-.39.26.02.78,2.58,4.3.76-.3,4.39-1.66,2.12-3.64,3.28-1.07.62-1.09,3.32-1.71,4.04s-4.95,3.89-5.41,3.45c.63-3.61-2.55-2.65-3.09-3.09-.32-.26,2.93-6.36,2.32-6.91-.81-.13-2.49.33-2.99-.08-.6-.49-.59-8.72-4.28.13-.52,1.26-.15,2.85-.61,3.62-.53.88-3.32,1.12-2.12,4.79-.93-.8-3.35-.52-3.75-.9s.46-3.56-1.64-1.8c-1.9,1.6-2.77,7.76-3.07,8.09-.32.36-2.63-1.08-3.06-.78-2.11,5.64,1.27,11.24,1.53,16.92-3.29.33-1.2-3.96-2.47-5.21-.52-.51-2.29-.32-3.18-.9-.64-.42-.45-1.51-.51-1.56-1.82-1.38-2.47,3.38-2.3,4.6l-3.83-.77,1.53,3.06c-1.52-.46-3.76.81-4.91.6-1.34-.25-1.97-2.76-3.78-2.75-1.36.01-5.38,2.73-5.92,2.15-1.52-1.63,2.74-2.7,1.53-3.84-.8-.76-5.34,3.06-6.14,2.3l3.07-4.61c-.23-.22-8.24,3.28-5.38,0,.18-.21,2.18-.21,2.91-.96.54-.56.46-1.73.91-2.37.56-.8,1.83-.12,1.57-1.28-2.97-.91-1.61-3.36-5.37-1.56l2.3-4.61h-6.92c-.29.22,1.15,1.42,1.37,2.08,1.18,3.56-.72,2.03-2.34,2.54-.93.29,0,2.49-3.64.76-.59,2.95,3.22,2.97,3.07,5.37l-5.37-1.53,2.3,6.91c-2.73-1.65-7.58,2.39-8.06,2.4-2.21.06-3.59-1.58-4.5-1.49s-7.85,2.95-5.36-.13c1.51-1.87.11-1.05.44-2.58.17-.8,1.79-1.92,1.28-2.77-.14-.23-3.03-1.5-3.63-3.67-.42-1.54.17-5.04-.26-5.51-.18-.2-3.14-.87-3.74-.51-2.48,1.47-2.12,6.27-2.36,6.53-.34.35-3.16-.52-3.75,1.3-.32.99,1.1,4.82-.06,5.66-.96.7-2.53-2.01-3.83-1.53-.27,2.91,1.95,4.71,3.84,6.54-.18.75-2,.43-2.53.22-.31-.12-4.61-4.16-4.75-4.45-1.14-2.27,1.01-4.53-2.72-3.86,4.03-4.96-2.62-6.5-6.91-6.15-.28-3.4,4.2.49,3.07-3.84-.59-.66-3.76,2.52-4.61,1.54-.19-.22.26-1.77-.02-2.5-.3-.78-1.57-.37-1.61-1.71-.08-2.23,1.44-3.27,1.46-4.51.04-2.53-2.33-1.79-2.75-2.21-.5-.5,0-1.95-.16-2.15-1.63-2.05-1.45,2.13-1.57,2.23-.51.45-2.6-.36-3.66.23-.2.11-2.74,3.48-2.84,3.69-.67,1.53-.1,2.86-.4,4.09-.16.66-1.58.44-1.56.9.06,1.5,2.74,2.94.79,5.76-1.4.17-.31-1.37-1.25-2.38-.63-.67-2.99-1.14-3.74-2.22.24,2.02,1.15,4.52-1.12,5.77-3,1.66-1.88-.67-2.56-1.7-.19-.28-2.32-.22-1.26-1.76.17-.25,2.23.59,1.5-1.56-3.59.07-4.29.84-3.84-3.09-3.98-.92-3.67,1.19-5.45,2.66-.78.64-3.75.12-1.75,2.02,1.11,1.05,4.63,1.71,2.58,4.55-.05-.04-.68.04-1.28-.29-.29-.16-.37-1.19-.64-1.26-3.05-.82-1.56,1.98-1.92,2.32-.29.27-6.74,1.85-7.68.76.45,1.52-1.4,3.02-1.55,3.85l-3.08-3.07-4.61,2.3v-13.84Z"/><path class="cls-2" d="M661.97,84.08c1.3-1.25,1.96,1.22,1.54,2.31-.49.07-1.05-.08-1.54,0,.1-.58-.15-2.16,0-2.31Z"/><path class="cls-2" d="M392.11,61.02c2.1-4.36,8.02-1.71,5.38-7.68,4.01,1.63,4.89-2.13,6.54-2.37,3.37-.5,5.08,3.37,7.35,4.27,1.06.42,2.17-.3,3.05,0,1.25.42,7.19,3.08,7.67,2.71-3.31-3.21-3.41-6.47-.8-10.21,1.03-1.48,4.46-1.93,3.89-5.16,1.32-.24,2,.64,2.62,1.6.81,1.24,2.31,3.94,3.1,5.38.35.64.56,5.08,2.72,3.02.87-.83-2.4-4.49-1.53-5.37.13-.14,1.94.24,3.29-1.57.73-.98.48-3.54,2.07-2.27.28.22-.3,1.82,1.94,2.33,2.85.64,2.95-2.77,6.52-1.57.34-1.78-1.72-2.18-2.15-3.61-1.78-5.98,1.64-4.38,2.54-5.59.75-1-.03-3.92,2.29-3.88.03,4.41,6,3.29,6.55,3.85.27.27-.74,6.48-.4,7.67l5.77-1.52c-.71,1.52-1.03,4.37-1.56,5.59-.44,1-1.79.08-1.5,1.32l4.22-.77c2.21,1.39-4.3,3.01-2.68,4.62.72.72,2.07-1.21,2.79-1.33,1.09-.19,2.25.81,4.15.27,2.54-.73,3.62-5.17,6.9-5.08.42.43-3.49,8.9-3.9,9.19-.74.54-5.2-2.55-5.33,3.1,3.9,2.11,4.38-1.44,5.56-2.11.86-.48,2.39-.03,3.64-.59.91-.41,6.5-7.02,7.7-5.75.34,2.04.48,6.48,1.59,8.03.94,1.32,2.62.97,2.91,1.32.71.85-1.05,4.29,3.96,3.71l-.76-6.91,9.22,3.07-5.37-4.61,9.99.76c.36-2.19-.46-1.28-1.77-1.64-1.68-.46-3.4-.77-5.15-.67v-2.3c1.86.94,4.36-.16,5.73.03,1.23.17,3.8,2.46,5.04,1.5,3.05-2.37-11.48-4.97-9.93-7.63.05-.09,1.08.16,1.7-1,1.5-2.8.4-3.74.57-5.5.02-.22,2.67-1.15,1.52-3.54l4.61,1.53c.11-2.05-1.61-4.31-.37-6.17.36-.55,1.83-.52,1.98-1.27.19-.98-.62-2.39-.57-3.62.21-5.16,6.97,1,8.96-.49-2.81-5.2,1.68-3.76,2.31-4.61.72-.96-4.15-5.78,3.84-3.06l-.77,3.06h2.31c.99,3.82-3.19,2.42-3.89,3.59-.99,1.67.1,4.59.05,6.42l4.62-.38-.78,4.22c-.9.96-5.11-5.34-6.14-.39,2.67,3.54,6.01,1.76,9.22.4.34,3.53-3.49,4.44-3.84,7.68l3.07-.76c.32,1.39-.97,2.93-.8,4.12.04.28,3.1,3.78,3.14,4.06.17,1.21-1.45,3.85-.74,4.82.59.82,5.65.2,3.3,2.43-1.51,1.44-4.29,3.43-6.42,3.01-.46,2.14,2.39,2.01,2.95,3.59.42,1.2-.13,3.69.12,4.1-4.43,2.88-5.36-5.46-10.26-3.75-1.76.62-1.42,4.59-5.88,2.21,1.05,7.5-2.76,4.11-3.87,4.93-1.67,1.22,1.15,4.77-4.59,3.52v-6.91c-.55-.5-2.6,1.09-3.08,1.53-1.16-.71-3.57,0-4.25-.15-.5-.11-.3-1.34-.69-1.32-.73.04-1.8,1-3.02.77-.51-.1-1.59-4.09-4.41-2.03l-2.24,4.26,4.6-.76c-.69,6.44.78,3.69,2.31,4.61,1.66,1-.47,9.01-3.65,5.17-.47-.57-.72-5.14-2.49-3.63-.82.7-1.34,5.71-4.62,4.6-2.31-5.86.56-4.1,3.83-6.91-2.03.71-5.27.27-6.14-1.94-.83-2.1,3.23-.02,2.3-2.68-6.41.64-2.19-4.49-3.86-8.46-2.07-.57-4.42,3.31-5.68,3.05-1.5-.31-1.95-4.34-3.53-3.04-.44.36-1.93,4.63-2.38,5.55-.53,1.08-2.35.04-.71,3.67-1.28.68-5.07-.83-5.29-.68-.49.35-2.24,4.31-2.86,5.21s-2.3,1.18-2.55,2.11c-.28,1,.69,2.07.69,2.88.01,1.78-4.19,1.77-5.53,1.19-3.55-1.54-2.66-5.69-3.63-8.73-.64-2.02-5.67,3.06-5.85,3.38-.59,1.06.42,1.81.39,2.61-.02.47-1,.45-1.21.79-.4.66-.23,1.71-.39,1.86-.64.61-3.06-.31-3.69.21-.56.45-.3,7.74-3.13,5.31-2.28-1.96,4.11-10.21-1.56-9.23,2.51-6.97-2.05-4-3.08-5.41-.24-.33,1.41-6.43-1.92-7.66.12,2.14-2.41,2.84-2.7,3.68-.68,1.96,1.55,2.95-3.06,2.48,2.04,3.65-.8,1.51-1.93,3.04-.78,1.06-.15,3.38-2.24,4.69-.99.62-9.29,1.79-9.66,1.48-.33-.28,1.51-3.96.67-5.28l-6.82-.86c.27-2.22,2.35-3.03,1.42-5.65-1.14-3.23-5.56-2.38-6.86-3.17-.68-.42-.58-1.81-.72-1.94ZM415.17,57.95h-1.53v2.3h1.53v-2.3Z"/><path class="cls-2" d="M92.26,61.79c2.27-1.4,5.86-.6,7.5-1.27.18-.07,2.92-1.88,3.05-2.02.38-.41.13-1.41.45-1.82.51-.66,1.92-.88,2.07-1.43.65-2.26-7.55-3.24-6.92-6.53,1.8.84,2.49-1.52,2.82-1.56,2.65-.35,9,2.86,12.56,1.55.42-2.2-.6-1.23-1.68-1.74-.73-.34-5.87-3.05-6.07-3.34-1.14-1.66-.92-6.16-3.78-7.98l8.45.76-3.07-4.61c4.06,2.03,3.31-1.36,6.92-.77.41-2.13-1.84-1.35-2.28-3.51-.37-1.81,1.57-.69,1.52-1.49-.02-.29-5.17-3.53.75-1.92l.4-2.32,5.75,1.54c.23-1.86-3.33-5.9-2.96-6.81.05-.12,1.74-1.68,1.87-1.68,1.36,0,3.07,2.16,4.93,1.57-.68-3.07,1.36-1.86,2.1-2.51.31-.27.18-1.21.53-1.77.24-.38,1.25-.38,1.25-.72-.01-1.44-1.93-1.85-1.57-3.45h3.07c-1.97-5.24.26-3.35,3.39-5.49,1.06-.72,1.35-3.34,2.74-2.2.74.6.39,3.49,4.63,2.3l-.77,4.61h3.84s-.76,4.61-.76,4.61l3.84-.76-1.5,4.94c1.09,1.81,3.3,1.69,4.57.05-1.99-.24-2.11-1.91-.37-2.68,1.45-.65,1.16,3.15,2.68,1.53.28-.31-1.68-4.04-.39-6.15.76-1.24,3.58-1.49,4.48-2.24s.67-2.81,1.68-3.12c2.22-.69,2.03,1.4,2.93,2.1.6.47,1.96-.15,2.1.6.27,1.53-.51,3.48-1.56,4.61,5.55-2.88,6.04.81,7.38,5.55.16.58-.52,1.62-.44,1.7.44.44,6.23,2.74,7.55,4.78.24.37-.69,1.21-.67,1.42-3.39-.57-.32,3.79-.83,4.51-.28.4-2.52.52-2.92,2.17-.47,1.94,2.85,4.42-2.74,3.27-1.8-.37-3.38-2.29-5.81-1.49-.56,1.43,1.35,6.25.73,6.9-.19.2-3.1-.78-2.96,2.73.04,1,2.98,5.74-.45,4.98-.83-.18-1.87-2.94-3.47-2.3-.12.46.14,1.27,0,1.54-.26.47-.71,1.48-.77,1.54-.21.22-2.06-.67-1.47,1.08.14.41.87.82,1.02,1.31.24.82-.11,1.71.17,2.23,2.02,3.76,6.04,1,8.73,3.46.36,1.86-1.49,1.17-2.59,1.05-1.89-.2-5.16-1.32-6.8-2.28-.9-.53-.21-1.74-1.36-1.48l-.78,3.83,10.77,3.86c-.36,6.77-5.01-.63-8.45.76-1.8,2.65,4.82,3.23,3.07,4.6-.92.72-3.92-.78-4.92-.76-.13,0-1.91,1.44-1.98,1.55-1.43,2.12,5.27,2.21,5.36,3.82-5.06,1.28-7.67-2.92-12.29-3.06l.76,6.92c-5.71,1.1-3.74-2.43-4.78-3.69-.25-.31-1.69-.22-2.48-.95-2.1-1.91-2.88-6.54-1.97-9.2-1.46-1.44-6.53,5.16-7.72,5.73s-2.62.24-3.77.85c-2.2,1.17-4.33,5.32-6.97,1.87.05-.1-.84-1.62,0-2.31.33-.16.65-1.46,1.33-1.56,1.28-.18,2.64.8,3.58.63,1.34-.23,5.16-7.18,4.3-9.07-3.5,1.3-3.9,5.42-8.05,5.42-5.12,0-2.24.27-3.99.72-3.27.85-5.9-1.53-6.64-1.4-.83.15-1.5,1.72-3.07,1.34-1.01-.24-2.08-2.2-2.46-2.22-1.87-.11.21,3.99-1.15,4.6-.77-.02-4.74-3.2-4.62.39.09,2.8,3.26,1.57,4.62,1.92,5.03,1.31.45,5.78-1.9,5.42-.38-.06-.39-1.27-.56-1.32-.6-.19-1.27.55-2.56-.14-1.18-.64-6.27-4.18-6.44-5.22-.13-.76,1.9-2.88,2.23-4.89ZM115.71,24.11v.77c.5-.26.5-.51,0-.77ZM151.46,61.78l-1.53-1.53c-.22,1.61-.08,1.75,1.53,1.53ZM153.76,61.79c-.84-.84-2.37.69-1.53,1.53s2.37-.69,1.53-1.53ZM149.54,66.4v.77c.5-.26.5-.51,0-.77Z"/><path class="cls-2" d="M28.45,57.17c1.67,0,2.9,1.74,4.64,1.24s1.96-2.31,2.46-2.59c.92-.52,2.44.02,4.1-.91,2.19-1.24,3.18-5.97,7.25-5.43-.8,2.2-.28,5.86,1.15,7.69,1.22,1.56,3.1,1.34,3.35,1.66.73.9-1.08,4.26,3.96,3.71l-.76-6.91,8.45,3.07-4.6-4.61,9.22.76c.38-2.15-.46-1.29-1.68-1.73-.55-.2-7.94-1.99-6-3.64,2.64,1.67,5.31.54,7.26.8,1.55.2,2.92,2.2,5.03,1.5.36-1.54-3.21-3.43-4.17-3.9-1.74-.85-5.09-.62-5.82-2.64-.52-1.44,1.07-.82,1.75-2.09,1.5-2.8.4-3.74.57-5.5.02-.22,2.67-1.15,1.52-3.54l4.61,1.53c.17-1.78-1.23-3.9-.81-5.61.2-.79,1.87-.72,2.23-1.78.55-1.58-.1-3.95.12-5.68l7.68,1.54c-1.43-5.09,2.51-3.87,3.08-4.63.51-.67-2.37-3.99.39-3.86s6.14,5.3,4.23,6.58c-1.17.79-3.42.09-3.87.37-.3.18,1.15,5.99.78,6.92l4.62-.38-.78,4.22c-.9.96-5.11-5.34-6.14-.39,2.67,3.54,6.01,1.76,9.22.4.12,3.24-2.72,4.73-3.85,7.29l3.08-.37c-1.81,4.06.4,4.25.71,5.2.6,1.84.69,7.42.93,7.77.92,1.38,8.21-.4-.1,4.71l-3.06-3.07c.11,2.84-4.39,3.62-4.63,3.84-.92.89,8.98,12.84-3.84,6.15-.12,1.02-2.06,6.67-2.32,6.93-.32.32-2.26-.95-3.06-.77-1.31,1.27,7.67,7.69,3.89,10.43-1.15.83-9.77-2.71-11.1-3.61s-2.45-2.93-2.79-4.52c.35-.24,1.71-5.15,1.54-5.37-3.08-1.06-6.57.26-9.62-.7-2.69-.85-4.88-6.3-6.52,2.23l3.84-.76c.18.96-.36,3.24.08,3.77.28.33,7.5,1.67,8.38,1.61.43,1.92-1.51,1.66-2.35,2.65-.63.74-.48,2.2-.92,2.59-.53.47-1.93,0-2.11.15-.25.21,1.58,3.4.01,5.63-.42.6-1.46.49-1.5.56-.79,1.33,1.94,2.49,2.26,3.79l-5.38.02,3.84,3.07-5.37-.76,3.07,3.06c-4.98,1.32-8.22-3.27-12.29-4.1-1.33-.27-5.03.66-6.15-.52-2.01-2.11,2.54-.87,3.05-1.11,1.16-.53,2.06-2.86,3.63-3.33,2.34-.7,4.83.05,7.13.23-1.86-1.68-3.58-1.31-2.29-4.23-2.55.96-4.35.55-6.92-.01-.2-2.12,2.29-2.63,2.91-4.39,1.69-4.82-2.53-2.96-3.76-4.57-1.11-1.46.31-3.99.07-5.64-3.14-1.11-4.69,4.01-5.49,4.54-.85.57-7.52-3.59-5.29,6.49.11.51,2.95.66,1.55,2.03-.45.43-10.47-1.76-12.28,0-1.67-2.34.24-5.6-.13-7.16-.29-1.23-2.31-1.74-2.2-3.21.06-.91,3.3.48,2.32-1.93-5.24.64-4.58-3.91-3.85-7.69.1-.54,1.35-1.39,1.42-2.04.11-1.01-1.28-1.81-1.42-2.98-.04-.37.6-4.79.77-4.97,1.33-1.43,1.66,1.55,1.93,1.58,1.7.18,2.67-1.58,3.83-1.58,1.09,0,2.12,1.64,3.84,1.63,1.56,0,2.34-1.26,3.21-1.4.99-.16,2.18.65,3.53.42,3.06-.53,3.94-5.21,7.49-5.26.43.43-3.5,8.89-3.9,9.18-.47.34-4.69-1.78-6.69,1.01-.37.51-.07,1.14-.18,1.34-2.48,0-4.04,3.17-3.84,5.38,1.06-.12,1.74.57,2.27-.56.49-1.05.81-3.34,1.57-4.82ZM69.58,44.1v.77c.5-.26.5-.51,0-.77ZM43.82,57.18c-.99.36-4.01.52-4.47.95-.59.55.55.6-2.33,2.59-4.5,3.1,1.76,4.56,4.48,2.21.58-.5,2.61-5.45,2.32-5.74ZM21.14,72.55v.77c.5-.26.5-.51,0-.77ZM54.97,84.85v.77c.5-.26.5-.51,0-.77Z"/><path class="cls-2" d="M181.45,45.64c.06-.08,1.15.04,1.87-.83.42-.51.24-1.73.61-2.07.32-.29,5.21-1.05,5.22-2.11.02-3.06-6.6-.6-6.85-.3-.39.45.02,2.46-.07,3.38-.85,1.86-3.24-2.48-3.08-2.67.07-.09,1.46-.03,1.93-.77.64-1,.2-2.85.41-3.07.46-.48,8.62-.56,9.96.74-.78-2.01,1.32-2.3,1.38-2.44.82-1.71-2.54-2.38-2.14-4.47h3.84s-.76-2.31-.76-2.31c5.16,2.16,1.92-1.39,3.79-2.75,2.48-1.8,6.24.65,6.84,3.33.34,1.53-.91,3.51-.55,3.92.29.33,1.33-.02,1.45.11.34.34.38,2.29,2.31,2.69,0,.91-3.08-.44-2.31,1.53.5,1.27,7.61,4.32,0,4.25l1.54,2.29-5.38-.75c0,1.23,2.21,1.22,2.34,1.95.87,4.92-6.21.41-8.49,1.5,4.23,1,2.91,6.86,4.05,7.87,1.23,1.1,7.16,3.78,9.02,3.28v2.3c-5.44,1.09-9.45-1.82-14.61-1.53-.45.98,3.26.86,1.53,2.29-.56.46-2.88-.91-3.84-.76-1.33,1.31,8.25,7.05,10,6.15.82,2.96-3.89.88-4.61,1.54l1.53,3.84c-4.06-1.48-3.15.06-4.47.68-2.64,1.25-8.85,2.26-11.48,1.05-1.31-.6-2.82-2.54-1.21-3.24,1.12-.49,3.11.11,4.09-1.95-2.56-.73-1.11-1.29-.77-3.45h-3.08c-1.27-.97,3.18-2.88,3.06-4.24-.05-.54-1.9-.98-2.33-1.67-1.43-2.29-.49-4.78.04-7.16l-3.07.76c-.57-2.79,1.36-3.78,2.23-5.24.3-.5-.07-1.48.07-1.68Z"/><path class="cls-2" d="M307.54,62.55c2.1-.69,4.68-4.26,4.62-6.15,4.3,1.46,3.16.66,2.3-3.07,3.07,1.41,1.76-3.15,3.45-2.3,2.53,1.27.15,9.2,5.78,7.69-2.19,3.74,1.85,4.24,1.29,7.94-.12.81-3.49,5.37.25,5.12-.19.36.35,1.85-.08,2.21-.54.45-3.23-.33-4.2,1.64-.85,1.71,2.27,6.1-2.82,5.99-4.03-.08-4.32-4.07-5.66-5.96-.47-.67-1.49-.84-2.11-1.78-.76-1.13-1.88-4.26-2.08-4.41-.33-.25-5.37,2.42-2.17-1.83,1.36-1.81,1.74-2.1,1.44-5.09Z"/><path class="cls-2" d="M266.02,24.88c.04-2.25,3.04-2.38,3.13-2.74.23-.94-.36-3.89-.05-4.19,3.49-.7,1.71,1.33,2.45,2.12.43.46,1.99.15,2.56.92.9,1.2.44,6.29,1.86,7.39,1.79,1.39,3.84-2.04,4.66-1.2.46.48-.72,2.46-1.19,3.05-1.18,1.49-3.05,1.03-2.65,3.09l6.14-1.53c.5,2.02-3.5,3.44-3.07,4.99.16.56,1.61.81,2.05,1.41s.3,1.8,1.02,2.42c2.49,2.13,4.96-.83,3.85,6.56-2.04.03-11.65,2.37-12.31,1.95-2.44-1.58,2.15-5.96,3.08-8.1.04-.09,1.47-.6.69-1.47-.26-.29-1.33.06-1.46-.07-.27-.26-.66-3.09-.77-3.84l-4.6,1.53c-.31-1.56,2.39-2.94,1.45-4.52-.13-.22-2.76-1.04-3.53-1.85-1.36-1.44-2.6-4.74-3.3-5.93ZM279.09,36.42c-.84-.84-2.37.69-1.53,1.53s2.37-.69,1.53-1.53Z"/><path class="cls-2" d="M1034.1,51.02c-.03-.97,2.53-6.65,3.83-5.38,1.09,1.07-.74,5.1,3.86,3.84.85,1.79-1.76,4.82-1.52,5.72.18.68,1.57.83,2.06,1.46.35.45.07,1.6.37,1.88.59.55,1.75,0,2.16.16-1.91-1.93,1.98-2.43,2.3-2.68.61-.48,1-4.44,3.08-2.7.16.13-.19,1.4,0,1.53.34.22,1.75-.23,2.47.03.67.25.76,1.35,2.03,1.97,3.16,1.54,5.56-.15,4.71,4.15-2.38-1.05-5.02-.41-7.26-.8-1.14-.2-1.96-1.2-3.15-1.47-1.06-.24-4.01.14-4.19-.04.34.14,2.38,1.6,1.53,2.3-.73.6-3.69-1.53-4.6-.38,1.8,2.87,4.6,2.96,7.14,4.24.47.24.42,1.34,1.07,1.52,1.55.42,3.87-1.07,3.31,1.54h-5.37s1.53,3.85,1.53,3.85c-3.35-1.7-4.41,1.38-7.29,2.32l-1.93-6.16c6.18-1.98-1.15-3.19-4.61-3.08-.27-2.68,1.07-3.1,1.54-5.38-5.28-.09-.82-1.79-.76-2.04,1.16-5.31-1.35-3.57-2.16-4.26-.55-.47.01-1.81-.15-2.16ZM1039.47,58.72c-1.08-.55-2.05.49-1.53.75,1.08.55,2.05-.49,1.53-.75Z"/><path class="cls-2" d="M145.93,77.38c.41.58,0,1.95.15,2.09.8.82,3.05-1.39,4.08-1.37.39,0,7.19,1.86,7.45,2.15.84.93-1.97,6.99-3.26,7.49-2.89,1.12-7.16-2.11-8.65-2.15-.52-.01-.08,2.17-1.53,1.56-2.21-.93.3-4.64-.4-5.37-.43-.45-4.21,1.21-5.37.76-.76-2.18,1.99-1.49,2.24-2.73.13-.64-1.01-2.32-.71-2.64.41-.45,5.18-.97,6.01.21Z"/><path class="cls-2" d="M359.82,47.95c-.77,3.4-2.23,2.98-2.36,3.6-.34,1.54,1.62,4.17.51,5.68-.83,1.13-3.2.48-3.53.72-.19.15,1.73,2.95.45,4.67-.74,1-2.69.39-3.37.85-.9.61-.54,3.62-1.07,4.32-.43.58-2.47.55-3.48,1.16-.49.29-.7,1.74-1.38,2.05-2.66,1.21-1.72-2.18-2.68-3.06,1.06-2.7,1.52-2.11.77-4.61-.12-.4.08-1.06,0-1.54,4,.48,4.36-2.66,5.39-6.15,2.33.52,2.75,2.08,5.38.77-1.95-3.41.17-2.67.74-3.63,1.09-1.85,1.76-5.53,4.64-4.82Z"/><path class="cls-2" d="M608.16,77.17c.33.46-1.04,2.08-.78,2.29,2.79.4,4.36-2.41,3.85,1.54,1.29.33.3-1.36,1.26-1.57,1.19-.25,6.13.4,6.86,1.55.48.76-2.57,6.62-2.89,6.81-1.78,1.05-7.77-1.92-8.73-1.91-.77,0-1.3,1.75-2.66,1.27l.76-6.14c-2.25.48-3.5,2.24-6.14,1.53-.76-2.18,1.99-1.49,2.24-2.73.14-.69-1.02-2.3-.71-2.64.5-.56,6.3-.88,6.94,0Z"/><path class="cls-3" d="M63.05,74.09c-.88.06-8.1-1.29-8.38-1.61-.44-.53.1-2.81-.08-3.77l-3.84.76c1.64-8.53,3.83-3.08,6.52-2.23,3.05.96,6.55-.36,9.62.7.17.23-1.19,5.14-1.54,5.37-.1.07-2.19.76-2.31.77Z"/><path class="cls-3" d="M490.52,73.32c-1.53-.92-3,1.83-2.31-4.61l-4.6.76,2.24-4.26c2.82-2.07,3.9,1.93,4.41,2.03,1.21.23,2.29-.73,3.02-.77.38-.02.19,1.21.69,1.32.68.15,3.09-.56,4.25.15-.86.81-2.24,3.66-2.43,3.77-.32.18-4.13-1.25-5.26,1.61Z"/><path class="cls-2" d="M126.61,71.53c.56-.58.17-2.31,1.47-2.68.46-.13,1.41.52,2.1.37.73-.16,3.01-2.49,3.59-.12.72,2.94-7.34,11.79-10.76,6.11-.37-1.6,2.74-2.81,3.6-3.69Z"/><path class="cls-3" d="M588.93,78.7c.2.2-.12,2.32,0,3.07h-5.38c-1.31,2.25,4.16,1.08,2.3,3.07-1.17,1.25-8.68.63-10.76.78-.33-3.59,4.68-1.44,5.81-3.02.87-1.22.09-4.58.34-6.2,2.15-.5,2.2,2.64,3.52,2.95.82.19,3.61-1.21,4.16-.64Z"/><path class="cls-3" d="M1001.04,54.1c.48-.94.11-2.68,2.3-2.3l-.76,3.06c3.56.34,3.33-.29,3.84-3.07,2.66,3.14,5.21,3.5,9.23,3.08.78,3.39-1.83,2.48-4.52,1.82-1.36-.33-5.73-3.18-6.24-.66s7.42,2.13,8.89,4.97c.66,1.28-.8,2.85-1.7,3-.39.06-6.6-2.78-7.25-3.32-2.23-1.89-1.84-4.73-3.79-6.58Z"/><path class="cls-2" d="M189.9,81.01c-.09-.3-3.01-5.93.4-5.4,1.3.2,8.06,4.73,6.52,6.17-2.32-.25-4.59-.56-6.92-.76.33,1.12.43,2.64.77,3.84-2.49-.82-6.82,1.35-8.77.83-1.63-.43-2.28-9.86.69-8.51,1.64.75.94,3.56,1.17,3.84.13.16,1.2-.65,1.89-.63,1.27.04,2.77.49,4.25.62Z"/><path class="cls-2" d="M588.73,71.52c.38-.45.05-1.75.27-1.94.5-.44,2.28.13,3.26-.11.23-.06,2.9-3.82,3.6-.36.34,1.67-5.78,9.29-9.2,7.7-4.23-1.96,1.15-4.2,2.07-5.29Z"/><path class="cls-3" d="M661.97,84.08c.37-.34-1.13-3.14,1.92-2.32.27.07.36,1.11.64,1.26.6.33,1.23.24,1.28.29,4.19,3.85.66,2.66-2.31,3.08.42-1.09-.23-3.56-1.54-2.31Z"/><path class="cls-3" d="M661.97,84.08c-.15.15.1,1.73,0,2.31-.84.14-4.47,1.19-4.62,1.94-.17.88,3.48,3.65-.55,4.85-3.06.9-8.93-3.16-3.28-2.95.24-.64-.79-1.42-.77-1.53.15-.83,1.99-2.33,1.55-3.85.93,1.09,7.39-.49,7.68-.76Z"/><path class="cls-2" d="M337.52,57.94c-.66,1.39-1.3,6.03-1.73,6.74-.54.89-3.32,1.11-2.12,4.79-1.94-.49-4.6-.09-3.84-3.07.1-.07.25-1.69,1.51-2.01-1.86-1.16,2.28-5.63,3.11-6.07,1.15-.61,2.14-.19,3.07-.38Z"/><path class="cls-3" d="M127.62,78.7c.95,5.23-2.58,2.49-6.14,2.31-1.16,2.2,4.84,2.18,3.07,3.83-.67.63-10.35,1.13-10.76.77-.04-3.5,4.76-1.56,6.55-3.82,1.66-2.09-1.44-1.02-1.17-2.32,2.1-1.55,3.54.45,4.22.47s2.61-2.03,4.23-1.24Z"/><path class="cls-3" d="M55.89,98.15c.8.97,1.15,2.33.96,3.57l-4.98,1.67c-2.12-1.87-4.25-1.26-3.43-4.7l3.84.76-.76-3.06c.6-.55,3.81,1.07,4.37,1.76ZM53.43,99.46v.77c.5-.26.5-.51,0-.77Z"/><path class="cls-2" d="M1040.25,81.01c-2.68-8.63,7.32-4.3,7.68.77-2.18-.7-4.92-.41-6.92-.77-.25-.04-.52.05-.77,0Z"/><path class="cls-3" d="M971.82,65.63c1.04,6.74-3.52,3.62-3.82,3.84-.46.33-.57,5.29-4.63,3.84.7-4.21,4.28-7.17,8.45-7.68Z"/><path class="cls-2" d="M22.3,83.31c-.06.18,0,.51,0,.77-.02,2.18,1.24,2.76,1.55,4.22.7,3.31-5.72-1.59-6.22-2.24-2.94-3.9,2.29-5.27,4.66-2.74Z"/><path class="cls-2" d="M819.59,51.79c-.68,2.19.89,5.48-3.08,6.15-.72-2.17-3.53-3.08-1.53-7.68l4.61,1.53Z"/><path class="cls-3" d="M287.46,49.56c.21.13,1.06,2.76.86,2.99l-9.23.77c.1-.62-.15-2.14,0-2.3.29-.31,8.01-1.69,8.37-1.46Z"/><path class="cls-3" d="M608.76,90.81c.17-.06.18-.97.36-1.06,2.88-1.51,2.11,1.26,2.11,3.56-2.32.29-4.02-.35-6.06-1.28-.83-.38-2.84-.97-2.39-2.17,1.06-2.83,4.66,1.4,5.98.94Z"/><path class="cls-3" d="M117.63,67.17c-.84.69.05,2.2,0,2.31-.05.11-1.03.54-1.41,1.25-1.23,2.33-.93,4.27-3.58,4.14-2.85-.14,1.32-6,2.13-6.71.91-.8,2.08-.6,2.85-.98Z"/><path class="cls-3" d="M1138.6,49.52c.15.11,1.01,2.83.83,3.03l-9.22.77,4.97-3.1c.81-.31,2.83-1.14,3.42-.71Z"/><path class="cls-3" d="M289.09,60.25c.21,1.55.13,1.26-.96,1.74-2.63,1.15-8.15.51-7.5-3.27l8.46,1.54Z"/><path class="cls-3" d="M568.82,58.86c.07.03.09.89.75,1.31.43.27,4.66,1.74,3.22,3.15-.76.75-2.09-1.27-2.67-1.27-.62,0-2.61,2.08-4.24,1.27-.55-1.87,1.06-5.28,2.94-4.46Z"/><path class="cls-3" d="M149.92,89.47c.36,5.3-3.84,4.71-6.91,1.91l6.91-1.91Z"/><path class="cls-3" d="M1136.31,58.79c.32.31-.15,1.99.05,2.23.15.18,6.33-1.85,3.84.75-1.36,1.42-8.95.3-8.45-3.06,1.05.2,4.1-.37,4.57.08Z"/><path class="cls-3" d="M1040.25,81.01c.25.05.52-.04.77,0l.38,3.85h-3.45c1.8-3.35-.92-2.07-1.54-3.46-1.6-3.61,2.47-.64,3.84-.39Z"/><path class="cls-3" d="M1035.63,64.86c3.46-.12,10.8,1.09,4.61,3.08-.97.31-2.12.9-3.1.46-.37-.27-1.46-2.98-1.51-3.53Z"/><path class="cls-2" d="M263.7,35.64c-1.27,1.04-1.37-.5-1.74-.97-2.77-3.48-.21-2.19,1.37-5.19,3.29-.08,1.3,5.4.36,6.16Z"/><path class="cls-3" d="M1168.64,83.32c.84,2.04-1.58,1.3-1.56,1.92.04,1.56,1.92,1.78,1.56,3.45l-4.61-1.55c.21-2.81,1.73-4.36,4.61-3.82Z"/><path class="cls-3" d="M1111.81,31.87c.2-.26,2.36-.78,2.64-2.39,3.19.22,1.93,5.01-.1,5.35-1.12.18-3.2-2.1-2.54-2.96Z"/><path class="cls-3" d="M22.3,83.31c1.18-3.71,4.87-2.56,5.39,1.15.41,2.91-3.87-1.12-5.39-.38,0-.26-.06-.58,0-.77Z"/><path class="cls-3" d="M559.93,66.17c.76.56,5.68,1.25,3.63,3.3-1.58,1.58-5.62-2.49-6.14-4.24-1.03-3.46,2.34.82,2.5.94Z"/><path class="cls-3" d="M1039.47,71.01c-.46,7.94-8.64.9-3.62.2.89-.12,2.4.5,3.62-.2Z"/><path class="cls-3" d="M625.84,54.87c2.05,5.2-10.16.05-8.46-1.54.32-.3,6.29,2.95,8.46,1.54Z"/><path class="cls-3" d="M24.6,94.85c-.07.98-.59,1.87-.26,2.89.25.77,3.15,1.4,1.79,2.49-.95.76-4.47-2.31-6.15-1.54l3.08-1.54c-1.02-2.45-1.4-2.5,1.54-2.3Z"/><path class="cls-2" d="M6.92,84.85c-1.88.27-5.39.17-4.6-2.68s5.64-.15,4.6,2.68Z"/><path class="cls-3" d="M178.37,61.02c.15.18-.21,4.42-.35,4.61-1.24,1.69-3.19.78-3.51-1.14-.49-2.87,1.07-1.52,1.69-1.98.55-.41,1.12-2.72,2.17-1.49Z"/><path class="cls-3" d="M156.84,46.41c.57.75,1.29,1.67,2.15,2.07,2,.94,5.11.36,4.77,2.53-3.16.44-5.85-.42-7.68-3.07.06-.06.51-1.07.77-1.54Z"/><path class="cls-3" d="M101.49,65.63v2.31c-1.36-.35-4.53.88-4.62-1.92-.12-3.58,3.85-.4,4.62-.39Z"/><path class="cls-2" d="M1070.23,23.34c-.37-1.5-2.23-2.39-.76-5.38l3.07,3.08v2.31c-.25-.02-.51,0-.77,0-.51,0-1.03,0-1.54,0Z"/><path class="cls-3" d="M178.25,71.13c1.42.83,1.5,5.92-2.23,3.39-1.89-1.29-.8-5.17,2.23-3.39Z"/><path class="cls-3" d="M451.31,81.01c.23,4.26-7.49,1.44-5.38-.77.51-.54,4.26.89,5.38.77Z"/><path class="cls-2" d="M146.08,94.85c.92.81-2.9,4.79-4.61,3.84-.59-2.21,3.13-5.13,4.61-3.84Z"/><path class="cls-3" d="M687.34,82.55l-1.91,5.37c-2.03-.47-.26-5.93,1.91-5.37Z"/><path class="cls-3" d="M765,90.24c.16,2.28-1.63,3.91-3.83,3.84l-.78-3.07,4.61-.77Z"/><path class="cls-3" d="M1073.3,43.35c1.54,1.84-5.06,4.44-3.84-1.55.18-.2,3.7,1.39,3.84,1.55Z"/><path class="cls-3" d="M638.83,62.63c.86.55,1.18,4.25-1.06,3.76-1.8-.39-1.86-5.64,1.06-3.76Z"/><path class="cls-3" d="M342.9,67.94c-.14-.13-1.22.23-1.46-.06-.72-.91.84-4.18,2.23-4.55.75,2.51.29,1.92-.77,4.61Z"/><path class="cls-3" d="M1007.95,45.64c1.55,2.22.97,2.58-1.54,2.31-.1-.39-1.31-1.02-.77-2.3.74-.12,1.63.13,2.31,0Z"/><path class="cls-3" d="M276.78,39.49c.13.13,1.2-.22,1.46.07.78.87-.65,1.37-.69,1.47l-2.3.77c-.27-1.28.42-1.82,1.53-2.31Z"/><path class="cls-3" d="M1161.71,81.78c.12.1.92,2.92.78,3.07-1.8,1.84-3.35-5.17-.78-3.07Z"/><path class="cls-3" d="M1072.54,23.34c3.63.23.74,3.3-.77,0,.25,0,.52-.02.77,0Z"/><rect class="cls-3" x="558.18" y="57.18" width="3.07" height=".75"/><path class="cls-3" d="M291.01,61.79c.5.26.5.51,0,.77v-.77Z"/><path class="cls-3" d="M569.33,57.17c.5.26.5.51,0,.77v-.77Z"/><path class="cls-3" d="M1008.34,51.02c.5.26.5.51,0,.77v-.77Z"/><path class="cls-3" d="M646.21,66.4c.5.26.5.51,0,.77v-.77Z"/><path class="cls-1" d="M576.63,51.8c.52.27-.45,1.31-1.53.75-.52-.27.45-1.31,1.53-.75Z"/><path class="cls-2" d="M713.87,27.19c.5.26.5.51,0,.77v-.77Z"/><path class="cls-2" d="M493.98,49.48c.5.26.5.51,0,.77v-.77Z"/><path class="cls-3" d="M1162.11,59.48c.5.26.5.51,0,.77v-.77Z"/><path class="cls-1" d="M205.28,33.34l3.84.76c-2.66-5.37,4.48.08,5.38-.77.53-2.05-3.39-6.43-2.94-7.57.05-.12,1.73-1.69,1.86-1.69,1.31-.01,5.03,3.09,5.69,2.34v-3.08s2.71.76,2.71.76c-1.69-3.61,1.17-3.95,1.17-4.22-.01-1.48-1.93-1.83-1.56-3.45l3.07.76c.35-1.07-1.26-4.01-.74-4.58.26-.29,5.73-.98,5.38-3.87l1.54.36c1.03,4.41,1.65,1.83,5.36,1.94.33.3-4.23,7.25,2.3,4.61-.05,4.4-1.04,5.13,3.85,4.62.76.66-3.24,5,.03,6.57s3.23-1.96,2.29-4.26l3.84,1.53c.46-.46-1.94-5.61-1.53-6.12.11-.15,1.81-.24,2.53-.78.56-.41.51-1.19,1.51-1.79.7-.43,2.35-.23,2.74-.67s.4-3.96.92-4.47c1.49-1.45,1.75,2.44,2.62,3.15s2.65.6,2.75.7c.28.28-1.24,4.59-1.54,5.36l4.6-1.53c.31.22,1.1,5.27,1.57,6.36.34.79,1.48.49,1.52.56.7,1.19,1.94,4.49,3.3,5.93.77.81,3.4,1.63,3.53,1.85.94,1.58-1.76,2.96-1.45,4.52l4.6-1.53c.12.76.51,3.58.77,3.84-1.11.49-1.8,1.03-1.53,2.31l2.3-.77c-.93,2.13-5.52,6.52-3.08,8.1.66.43,10.27-1.92,12.31-1.95.16,0,2.28,1.55,3.06.76.2-.21-.27-1.93.05-2.22.5-.47,2.65.21,3.04-.07,1.84-1.32-5.17-2.29-3.84-4.61.32-.33,3.87,1.38,4.6.76,1.64-1.38-3.06-1.62-1.53-3.07.28-.26,3.54,1.22,4.61.76l-.77-3.83c8.35-2.42,5.65,8.01,6.14,8.45.21.19,4.69.53,5.39,1.55.25.36-1.16,1.27-1.36,2.08-1.32,5.33.98,3.42,1.91,4.23.18.16,1.94,4.28,1.75,4.44-1.46-.03-5.55-.59-5.39,1.92.04.63,2.57-.96,3.08,4.24.3,2.99-.08,3.28-1.44,5.09-3.19,4.25,1.84,1.58,2.17,1.83.19.15,1.32,3.28,2.08,4.41.63.93,1.64,1.11,2.11,1.78,1.34,1.89,1.63,5.88,5.66,5.96,5.09.1,1.98-4.28,2.82-5.99.98-1.98,3.67-1.19,4.2-1.64.43-.36-.11-1.85.08-2.21.77-1.47,1.84-4.32,2.23-4.94.57-.9,2.12-.27,2.38-.44-.76,2.99,1.9,2.59,3.84,3.07-1.2-3.67,1.58-3.9,2.12-4.79.43-.71,1.07-5.35,1.73-6.74.51-.1,1.82-1.15,2.3-.77.78.62-.82,4.05,3.85,4.62.08.48-.12,1.13,0,1.54-1.38.37-2.95,3.64-2.23,4.55.23.29,1.32-.07,1.46.06.96.88.03,4.27,2.68,3.06.68-.31.89-1.76,1.38-2.05,1.01-.61,3.05-.58,3.48-1.16.52-.7.17-3.71,1.07-4.32.67-.45,2.62.15,3.37-.85,1.28-1.72-.64-4.52-.45-4.67.33-.24,2.7.4,3.53-.72,1.12-1.51-.85-4.14-.51-5.68.14-.62,1.6-.2,2.36-3.6.24-1.07-.05-3.74.93-4.46,2.83-2.06,7.4,1.65,5.22-7.84l2.7.75-.79-2.27c3.04,2.15,1.44-.96,1.98-1.48.49-.47,2.73.2,3.04-.07.45-.4-1.02-6.49,1.14-5.38.24.12,3.48,3.75,3.64,4.03,2.29,4.1-.27,11.85,6.74,5.96,1.08,2.31-3.8,5.02-3.82,5.77-.1,2.81,7.45-2.18,6.13.76l-5.37,4.23c.95.06,5.03.51,5.3.86.44.56-.25,2.55.11,2.95.17.19,4.02.19,4.49.9.86,1.32-.75,3.77-.72,4.87.02.73,2-.22,1.59,1.58-.18.79-1.3.17-1.5.42-1.42,1.71,1.38,1.41,1.49,1.51.14.12.04,1.52.72,1.94,1.3.79,5.71-.06,6.86,3.17.93,2.62-1.16,3.43-1.42,5.65l6.82.86c.83,1.32-1,5-.67,5.28.37.32,8.68-.86,9.66-1.48,2.09-1.31,1.46-3.63,2.24-4.69,1.13-1.53,3.97.6,1.93-3.04,4.62.47,2.39-.52,3.06-2.48.29-.84,2.82-1.54,2.7-3.68,3.34,1.23,1.68,7.32,1.92,7.66,1.02,1.41,5.59-1.56,3.08,5.41,5.67-.98-.73,7.27,1.56,9.23,2.83,2.43,2.57-4.85,3.13-5.31.63-.51,3.05.4,3.69-.21.16-.15-.01-1.2.39-1.86.2-.34,1.19-.32,1.21-.79.03-.79-.98-1.54-.39-2.61.18-.32,5.21-5.4,5.85-3.38.97,3.05.08,7.2,3.63,8.73,1.34.58,5.54.59,5.53-1.19,0-.82-.97-1.88-.69-2.88.26-.93,1.94-1.22,2.55-2.11s2.37-4.87,2.86-5.21c.22-.15,4.01,1.36,5.29.68-1.64-3.63.18-2.59.71-3.67.45-.92,1.95-5.19,2.38-5.55,1.57-1.3,2.03,2.73,3.53,3.04,1.26.26,3.6-3.61,5.68-3.05,1.66,3.97-2.56,9.1,3.86,8.46.93,2.65-3.13.58-2.3,2.68.88,2.21,4.11,2.65,6.14,1.94-3.28,2.81-6.14,1.05-3.83,6.91,3.28,1.11,3.8-3.91,4.62-4.6,1.77-1.51,2.02,3.06,2.49,3.63,3.17,3.84,5.3-4.18,3.65-5.17,1.12-2.87,4.94-1.44,5.26-1.61.2-.11,1.57-2.96,2.43-3.77.48-.45,2.53-2.04,3.07-1.53v6.91c5.74,1.25,2.93-2.3,4.59-3.52,1.12-.82,4.92,2.57,3.87-4.93,4.46,2.38,4.12-1.59,5.88-2.21,4.9-1.71,5.83,6.62,10.26,3.75.04.07,1.41-.3,1.59.5.31,1.4-1.05,3.33-.81,4.88.77.88,4.04-3.06,4.31-3.07.91-.04,2.17,1.1,3.37.76-1.02-2.77-1.78-3.12-1.36-6.34.62-4.75,2.25-3.49,3.7-4.95s2.11-4.66,2.29-4.86c1.73-1.81,2.86,5.35,3.29,5.93,1.23,1.68,4.2,1.01,2.08,5.6,7.52-.37,1.6-3.32,2.25-6.41.13-.63,2.52-1.43,3.35-2.05.66-.49.49-1.48.56-1.52,1.77-1.12,1.48,1.78,2.74,2.14.2.06,4.03.31,4.17.15.83-.94-2.2-3.31,3.84-1.55-1.52-3.54-4.21-4.56-3.07-9.22,2.9,1.3,1.71.12,2.94-.7.46-.31,1.51.06,1.67-.07.29-.25-2.03-4.88.37-3.83,1.14.5,1.59,2.57,2.49,3.13,1.61,1,3.63-.58,4.47.7.7,1.08-.68,6.7-.41,6.92.21.17,4.43.45,5.39.78l-.76,2.7,3.06.38-4.61,2.69,3.06-.39c.64,1.8-3.06,4.13-.37,5.37,1.81.83.9-2.07,1.14-2.3.33-.31,3.5,1.03,5.4.46,2.65-.79,3.96-4.79,6.89-5.07.67.76-3.5,8.86-3.96,9.13-1.37.79-5.76-3.19-6.03,3.93,3.55,1.09,4.92-1.7,6.96-2.64,1.19-.55,2.6-.28,3.77-.84,2.04-.97,4.79-5.72,7.71-6.5-.75,2.86-.39,8,1.97,9.98.87.73,2.33.66,2.53.9.51.59-.21,2.49.16,2.91.18.2,4.42.59,5.34.81l-1.53-7.68c.45-.48,10.72,5.85,12.29,4.61,1.43-1.13-1.03-1.67-1.5-1.93-.84-.46-7.67-2.66-6.18-4.22,2.61.47,6.17.74,8.82.8,1.53.04,1.23-.16,1.17-1.57-1.44.51-11.22-2.71-9.23-4.61,1.86-.38,3.79,1.88,5.12,2.07,1.03.14,2.1-.68,3.5-.39,1.15.24,2.73,1.97,4.22,2.05,1.7.09,2.55-2.27,1.28-2.97-.69-.37-12.71-3.54-11.03-5.37.12-.13,1.18.16,1.39-.1.27-.32-.6-1.21-.6-1.73s1.25-.4,1.66-1.56c.67-1.89-.23-2.9-.12-3.83.03-.22,2.66-1.18,1.51-3.55l5.37,1.53c.44-1.86-1.37-3.23-1.34-4.86.06-2.83,2.64-1.86,2.85-2.07.88-.91-3.19-8.22,1.91-7.68,1.37.14,2.28,1.56,3.47,1.98,5.35,1.86,1.63-1.56,2.67-3.5.62-1.15,2.5-1.35,2.7-1.64.28-.41-2.18-4.21,1.97-3.78,3.41.35.96,3.73,1.15,3.88h3.08c.83,4.19-3.61,3.26-4.47,3.99-.97.82-.56,5.72.24,6.81.9,1.23,3.31-.18,2.69,2.28-8.98-1.87-5.44,5.78,2.59,3.86.9-.21,0-1.88,1.25-1.55.84,5.21-1.13,3.16-2.09,3.99-.33.29-1.12,3.53-.97,3.69l3.07-.76c-.28,1.98-1.33,4.37-.78,6.38.22.81,1.86.74,2.21,1.78,1,2.96-1.89,7.13,3.95,6.45.87.77-5.67,7-7.68,4.61-.84.82,2.36,3.49,3.07,3.84v13.84s4.61-2.3,4.61-2.3l3.08,3.07c-.02.11,1.01.89.77,1.53-5.64-.21.23,3.85,3.28,2.95,4.03-1.19.38-3.96.55-4.85.15-.75,3.78-1.8,4.62-1.94.49-.08,1.05.07,1.54,0,2.97-.41,6.49.77,2.31-3.08,2.04-2.85-1.47-3.5-2.58-4.55-2-1.9.97-1.37,1.75-2.02,1.79-1.48,1.47-3.59,5.45-2.66-.45,3.93.25,3.15,3.84,3.09.73,2.15-1.33,1.31-1.5,1.56-1.06,1.54,1.08,1.48,1.26,1.76.69,1.03-.43,3.36,2.56,1.7,2.27-1.26,1.36-3.75,1.12-5.77.75,1.07,3.11,1.54,3.74,2.22.95,1-.14,2.54,1.25,2.38,1.95-2.81-.73-4.25-.79-5.76-.02-.47,1.4-.24,1.56-.9.3-1.24-.28-2.56.4-4.09.09-.21,2.64-3.58,2.84-3.69,1.06-.6,3.15.22,3.66-.23.12-.11-.06-4.28,1.57-2.23.16.2-.34,1.65.16,2.15.42.42,2.79-.33,2.75,2.21-.02,1.23-1.54,2.27-1.46,4.51.05,1.34,1.31.93,1.61,1.71.28.73-.17,2.28.02,2.5.84.98,4.01-2.2,4.61-1.54,1.14,4.32-3.35.44-3.07,3.84,4.29-.35,10.95,1.18,6.91,6.15,3.73-.68,1.59,1.58,2.72,3.86.15.29,4.44,4.33,4.75,4.45.52.2,2.34.53,2.53-.22-1.88-1.82-4.11-3.62-3.84-6.54,1.31-.48,2.88,2.22,3.83,1.53,1.15-.84-.26-4.67.06-5.66.59-1.82,3.41-.95,3.75-1.3.25-.26-.11-5.07,2.36-6.53.61-.36,3.57.32,3.74.51.42.47-.17,3.97.26,5.51.6,2.17,3.5,3.44,3.63,3.67.51.86-1.11,1.98-1.28,2.77-.33,1.52,1.07.71-.44,2.58-2.5,3.08,4.48.22,5.36.13s2.29,1.55,4.5,1.49c.48-.01,5.33-4.05,8.06-2.4l-2.3-6.91,5.37,1.53c.15-2.4-3.65-2.43-3.07-5.37,3.63,1.73,2.71-.47,3.64-.76,1.62-.51,3.52,1.03,2.34-2.54-.22-.66-1.66-1.86-1.37-2.08h6.92s-2.3,4.6-2.3,4.6c3.77-1.8,2.41.64,5.37,1.56.26,1.16-1.01.48-1.57,1.28-.45.64-.37,1.82-.91,2.37-.72.75-2.72.75-2.91.96-2.87,3.27,5.14-.23,5.38,0l-3.07,4.61c.8.76,5.34-3.06,6.14-2.3,1.21,1.14-3.05,2.2-1.53,3.84.54.58,4.56-2.14,5.92-2.15,1.81-.02,2.44,2.5,3.78,2.75,1.15.22,3.39-1.06,4.91-.6l-1.53-3.06,3.83.77c-.17-1.23.48-5.98,2.3-4.6.07.05-.13,1.13.51,1.56.89.58,2.66.39,3.18.9,1.27,1.25-.82,5.54,2.47,5.21-.25-5.68-3.64-11.28-1.53-16.92.43-.31,2.74,1.13,3.06.78.29-.33,1.17-6.49,3.07-8.09,2.1-1.76,1.26,1.44,1.64,1.8s2.81.1,3.75.9c-1.2-3.67,1.59-3.91,2.12-4.79.46-.77.08-2.36.61-3.62,3.69-8.85,3.69-.62,4.28-.13.5.41,2.18-.05,2.99.08.61.54-2.64,6.64-2.32,6.91.53.44,3.71-.52,3.09,3.09.46.44,4.77-2.7,5.41-3.45s.64-3.42,1.71-4.04c1.98-1.16,3.34,1.11,3.64-3.28.04-.59.13-1.91,0-2.31,3.96-.67,2.39-3.96,3.08-6.15s3.23-3.72,1.53-6.91c1.14-.15,8.19-3.49,8.47-3.87.29-.41-4.97-6.22,2.31-6.14l-.77-3.06,3.07.76c.79-.94-1.72-6.43,1.93-5.39-.16,3.03,2.38,2.03,3.1,3.04,1.98,2.77.51,13.43,6.5,6.96,1.15,4.27-3.68,3.47-3.06,6.92l6.14-1.53-5.37,5.37c5.5-.55,4.06,4.55,9.22,4.62-.28,1.55.64,3.36.75,5.01.09,1.47-1.41,3.8.54,5.04,2.17,1.38,3.81-.12,5.15.15,1,.2,1.41,1.77,2.79,1.33-.46-2.81,1.01-4.48,3.84-4.61,1.31,3.95-2.27,9.2,3.85,8.46.93,2.65-3.14.58-2.3,2.68.67,1.7,3.62,2.89,5.37,1.94.62,2.74-2.48.8-3.51,2.25-.59.83-.27,2.16-.32,3.13,2.25-.25,3.45-2.01,4.21.77,3.92-1.49,3.32-5.22,4.62-6.94s3.83.94,1.93-3.82l3.84,1.53c-1.11-3.67,2.27-3.64,1.55-6.91,3.25-.53,1.95,4.22,2.31,4.61.89.99,4.44-3.82,4.64,3.48.03,1.01-.91,2.58-.8,2.66.44.33,4.3-.66,4.47,2.83.09,1.82-3.14,3.56-2.93,5.63.47.44,5.86-2.4,8.51,1.11,1.72,2.28-.42,2.72-.57,4.03-.16,1.38.71,3.15-.25,4.85,1.27,1.21,7.57-3.03,7.68-3.47.39-1.45-2.83-2.37-2.3-4.21,5.79.53,3.1-.5,3.87-4.07.05-.22,2.46-3.52,2.63-3.68.58-.54,4.79-2.33,5.09-2.74,2.82-3.9-.37-6.8,7.63-4.91-2.15-3.78,3.52-5.15,3.08-9.22,1.88-1.73,5.25,8.59,9.55,7.65,3.46-1.35-2.41-7.2-1.09-8.41.17-.16,1.5.32,2.11-.19.16-.13,1.16-3.3,2.1-3.66,2.36.92,2.99,6.68,2.66,8.8-.25,1.65-2.19,2.4-1.17,4.27.73,1.34,7.59,6.31,8.88,3.07-1,4.51,3.37,1.16,3.78-.54.24-1.01-3.02-6.92-.31-8.67,3.37,3.8,4.33-.06,4.62-.04,1.13.05,1.97,1.47,3.82,1.64,2.77.25,3.53-1.21,4.75-1.38,1.11-.16,2.38.72,3.68.57,1-.12,4.16-2.97,5.25-3.88.68-.57.63-2.77,2.11-1.13l-1.55,4.98c1.73-.75,4.03,1.6,4.89,1.45.54-.09,4.78-4.18,5.1-3.76-1.37,2.7,1.14,10.61,4.24,10.02.26-.05.32-2.6,4.22-.8-1.29-3.39-1.61-7.22.71-10.29.77-1.02,2.89-1.59,4.68-5.08,1.96,1.85,1.56,4.7,3.79,6.58.64.54,6.85,3.39,7.25,3.32.9-.15,2.36-1.72,1.7-3-1.47-2.84-9.4-2.47-8.89-4.97s4.88.32,6.24.66c2.69.66,5.3,1.58,4.52-1.82-4.02.42-6.57.06-9.23-3.08.35-1.91.63-1.49,0-3.84,2.51.28,3.09-.08,1.54-2.31.28-.06,1.12-.94,1.54-.77.09.03.21,1.04,1.26,1.4,4.79,1.62,1.17-2.46,1.27-4.74.13-2.91,2.56-1.8,2.81-2.06.88-.9-3.19-8.22,1.91-7.68,1.83.19,3.9,3.28,6.58,2.32-2.69-5.5,4.1-3.61,1.54-9.22l4.61.77-.77,3.06h3.08c.53,5.25-5.18,1.96-5.25,6.51-.08,5.59,3.68,3.73,4.47,8.1-2.41.48-1.03-1.76-3.44-2.32-3.66-.85-2.36,3.56,2.39,3.85,1.55.09,2.67-.55,4.12-.74,0,3.03.94,3.86-2.31,4.23-.26,2.62,2.23,2.51,2.32,2.68.17.36-.4,1.69.15,2.16.81.69,3.33-1.05,2.16,4.26-.05.25-4.52,1.94.76,2.04-.47,2.28-1.81,2.69-1.54,5.38.06.56,1.14,3.26,1.51,3.53.98.44,2.13-.15,3.1-.46l1.93,6.16c2.88-.94,3.94-4.02,7.29-2.32l-1.53-3.84h5.37c.56-2.62-1.76-1.13-3.31-1.55-.65-.18-.6-1.28-1.07-1.52-2.54-1.29-5.35-1.37-7.14-4.24.92-1.15,3.87.99,4.6.38.85-.7-1.19-2.16-1.53-2.3.18.18,3.13-.2,4.19.04,1.19.26,2.01,1.27,3.15,1.47,2.25.39,4.88-.25,7.26.8.85-4.3-1.55-2.61-4.71-4.15-1.27-.62-1.36-1.73-2.03-1.97-.72-.26-2.13.19-2.47-.03-.19-.12.15-1.4,0-1.53.96-3.85-3.45-4.49-3.84-7.68.58-.54,6.48,3.27,8.47,1.95,2.98-1.98-2.93-2.36-2.32-5.03l5.38,1.53-.77-2.29c6.06.43,2.15-2.25.01-5.01l3.04.78-3.05-3.46,3.83.76c-2.88-6.61-1.12-3.13,2.26-1.87s1.88-.29,2.39-1.36c.28-.59,2.81-.97,1.51-2.14-1.45-1.31-5.44.45-3.07-6.16l5.75,3.08c.63,0,.52-2.55.39-3.08.51,0,1.03,0,1.54,0,1.51,3.3,4.4.23.77,0v-2.31c3.97.32-.75-3.84,0-4.61l3.06.76-.77-4.6c1.94.7,6.5-4.31,7.69-3.09.9.92-2.37,3.2,4.61,1.54l-.76,5.37,3.84-1.53-.76,5.37c8.6-2.1,2.42,3.55,2.48,5.02.09,2.21,4.13,2.11,5.21-.02l-1.53-1.91,3.83.76c1.1-1.65-1.91-5.65-1.53-6.14.08-.1,1.8-.22,2.54-.77,1.52-1.13,4.09-2.26,4.25-2.46.5-.6-.04-4.12,2.43-4.47-.78,3.71,3.39,3.45,3.79,3.9.7.79-.99,4.05-.7,5.32l3.83-1.53c1.37,1.99,1.96,7.69,3.34,9.02.37.36,1.49.13,1.77.44,1.07,1.15,1.5,2.52,2.97,3.64s3.72-.09,2.52,3.25c-.38,1.07-1.7,1.47-1.36,2.86,1.25.55,3.01-2.38,3.84-1.53.12.13-.21,1.16.09,1.62.91,1.4,2.6,2,1.89,4.57-.34,1.24-5.21,6.08-4.28,6.88,5.96.07,11.1-2.67,16.91,0l-.76-3.07,3.07-1.53c-1.85.07-4.01-.92-3.84-3.08.32-.32,3.95,1.4,4.59.75.47-.48-1.41-3.25,3.09-2.29-1.82-3.16.2-4.46,3.45-3.85,4.05.76,1.36,6.47,2.89,8.3.26.31,4.26,1.49,4.43,1.72s-1.33,1.6-1.53,2.71c-.5,2.74,2.34,6.19,4.61,7.28-2.2.97-4.44-.54-6.14,1.93-.38,1.82,1.21.67,2.34,1.66.18.16,1.54,2.4,1.46,2.52-3.38-.13.34,3.43-1.06,5.46-.65.94-4.52,1.31-4.28,1.89,1.03,2.42,4.79.11,5.28.45.32.23,1.81,3.89,2.4,4.75.45.66,1.42.74,1.86,1.38.85,1.22,1.03,4.18,3.38,5.28,8.22,3.85,1.75-7.26,7.84-6.85v75.35H0v-69.96h4.62s-.77-8.45-.77-8.45c1.48-.21.22,1.6,1.22,2.39.47.37,3.14.93,3.39.68-1.14-4.05-2.73-7.17-1.53-11.53.92-1,4.88,5.17,3.84-2.31.91.29,2.74-.2,3.84,0-.73,3.79-1.39,8.34,3.85,7.69.98,2.4-2.26,1.02-2.32,1.93-.11,1.47,1.91,1.98,2.2,3.21.36,1.56-1.55,4.82.13,7.16,1.81-1.76,11.84.43,12.28,0,1.41-1.37-1.43-1.52-1.55-2.03-2.23-10.08,4.44-5.92,5.29-6.49.8-.53,2.35-5.65,5.49-4.54.24,1.64-1.18,4.18-.07,5.64,1.23,1.61,5.45-.25,3.76,4.57-.62,1.76-3.11,2.27-2.91,4.39,2.56.56,4.36.97,6.92.01-1.29,2.92.44,2.55,2.29,4.23-2.31-.18-4.8-.93-7.13-.23-1.57.47-2.47,2.8-3.63,3.33-.51.24-5.07-1-3.05,1.11,1.12,1.17,4.82.25,6.15.52,4.07.83,7.31,5.42,12.29,4.1l-3.07-3.06,5.37.76-3.84-3.07,5.38-.02c-.32-1.31-3.05-2.46-2.26-3.79.04-.07,1.08.04,1.5-.56,1.57-2.23-.26-5.42-.01-5.63.18-.15,1.58.31,2.11-.15.44-.39.29-1.85.92-2.59.84-.98,2.79-.73,2.35-2.65.12,0,2.21-.7,2.31-.77.34,1.58,1.46,3.62,2.79,4.52s9.95,4.44,11.1,3.61c3.78-2.74-5.2-9.17-3.89-10.43.8-.18,2.74,1.09,3.06.77.26-.26,2.2-5.91,2.32-6.93,12.82,6.69,2.92-5.26,3.84-6.15.23-.22,4.73-1,4.63-3.84l3.06,3.07c-.79,1,.03,3.65,0,3.84-.33,2-2.36,4.12-2.23,4.89.17,1.03,5.25,4.58,6.44,5.22,1.29.7,1.96-.05,2.56.14.16.05.18,1.26.56,1.32,2.35.36,6.93-4.11,1.9-5.42v-2.31c1.36-.61-.72-4.71,1.15-4.6.38.02,1.45,1.98,2.46,2.22,1.57.38,2.24-1.19,3.07-1.34.74-.13,3.36,2.25,6.64,1.4,1.75-.46-1.12-.73,3.99-.72,4.15,0,4.55-4.11,8.05-5.42.86,1.89-2.96,8.83-4.3,9.07-.94.17-2.3-.81-3.58-.63-.68.1-1.01,1.4-1.33,1.56-.78.39-1.94.18-2.85.98-.81.71-4.98,6.57-2.13,6.71,2.65.13,2.35-1.81,3.58-4.14.37-.71,1.35-1.13,1.41-1.25,2.63,3.45,4.76-.71,6.97-1.87,1.15-.61,2.6-.29,3.77-.85s6.26-7.17,7.72-5.73c-.91,2.67-.13,7.3,1.97,9.2.8.72,2.23.64,2.48.95,1.03,1.26-.93,4.79,4.78,3.69l-.76-6.92c4.62.14,7.24,4.34,12.29,3.06-.09-1.61-6.79-1.7-5.36-3.82.07-.1,1.86-1.54,1.98-1.55,1-.02,4,1.48,4.92.76,1.75-1.38-4.87-1.96-3.07-4.6,3.45-1.39,8.1,6,8.45-.76l-10.77-3.86.78-3.83c1.15-.26.46.95,1.36,1.48,1.64.95,4.91,2.07,6.8,2.28,1.11.12,2.95.8,2.59-1.05-2.69-2.46-6.71.29-8.73-3.46-.28-.52.07-1.41-.17-2.23-.15-.49-.88-.9-1.02-1.31-.59-1.75,1.27-.86,1.47-1.08,1.84,2.65,4.53,3.51,7.68,3.07.34-2.18-2.76-1.59-4.77-2.53-.86-.41-1.58-1.33-2.15-2.07.15-.27-.12-1.07,0-1.54,1.6-.64,2.63,2.12,3.47,2.3,3.43.76.49-3.98.45-4.98-.14-3.5,2.77-2.53,2.96-2.73.62-.65-1.29-5.46-.73-6.9,2.43-.8,4,1.12,5.81,1.49,5.59,1.15,2.28-1.33,2.74-3.27.4-1.65,2.63-1.78,2.92-2.17.51-.72-2.56-5.08.83-4.51.12.9,2.25,1.32,2.75,2.32.43.84-.55,2.22-.46,2.29.37.3,3.51-.84,2.31,1.92-.8,1.83-3.79.72-4.48,1.29-.16.13-1.54,3.74-1.51,3.95.11.87,3.16,4.97,2.92,5.14-8.89,1.1-.93,6.35,4.61,4.62-.14.2.23,1.18-.07,1.68-.88,1.46-2.81,2.45-2.23,5.24l3.07-.76c-.53,2.38-1.46,4.87-.04,7.16.43.69,2.28,1.13,2.33,1.67.12,1.37-4.34,3.27-3.06,4.23h3.08c-.34,2.17-1.79,2.73.77,3.46-.98,2.06-2.97,1.46-4.09,1.95-1.61.7-.1,2.64,1.21,3.24,2.63,1.21,8.83.2,11.48-1.05,1.32-.62.41-2.16,4.47-.68l-1.53-3.84c.73-.65,5.43,1.42,4.61-1.54-1.75.9-11.33-4.84-10-6.15.95-.15,3.28,1.22,3.84.76,1.73-1.44-1.98-1.32-1.53-2.29,5.16-.3,9.17,2.62,14.61,1.53v-2.3c-1.86.51-7.79-2.18-9.02-3.28-1.14-1.01.18-6.88-4.05-7.87,2.28-1.09,9.36,3.42,8.49-1.5-.13-.74-2.35-.72-2.34-1.95l5.38.75-1.54-2.29c7.61.08.5-2.98,0-4.25-.77-1.97,2.31-.62,2.31-1.53-1.93-.41-1.98-2.35-2.31-2.69ZM263.7,35.64c.93-.76,2.93-6.24-.36-6.16-1.58,3-4.14,1.71-1.37,5.19.37.46.47,2.01,1.74.97ZM1111.81,31.87c-.66.86,1.42,3.15,2.54,2.96,2.03-.34,3.28-5.13.1-5.35-.28,1.61-2.44,2.13-2.64,2.39ZM1073.3,43.35c-.13-.16-3.65-1.75-3.84-1.55-1.22,5.99,5.38,3.39,3.84,1.55ZM287.46,49.56c-.36-.22-8.08,1.16-8.37,1.46-.15.16.1,1.68,0,2.3l9.23-.77c.2-.23-.65-2.86-.86-2.99ZM1138.6,49.52c-.6-.43-2.62.4-3.42.71l-4.97,3.1,9.22-.77c.18-.21-.68-2.92-.83-3.03ZM1008.34,51.02v.77c.5-.26.5-.51,0-.77ZM625.84,54.87c-2.17,1.41-8.14-1.84-8.46-1.54-1.7,1.59,10.5,6.74,8.46,1.54ZM561.25,57.18h-3.07v.75h3.07v-.75ZM569.33,57.17v.77c.5-.26.5-.51,0-.77ZM289.09,60.25l-8.46-1.54c-.65,3.79,4.87,4.43,7.5,3.27,1.09-.48,1.16-.19.96-1.74ZM568.82,58.86c-1.88-.82-3.49,2.59-2.94,4.46,1.63.8,3.62-1.28,4.24-1.27.58,0,1.91,2.02,2.67,1.27,1.44-1.41-2.8-2.88-3.22-3.15-.66-.42-.68-1.28-.75-1.31ZM1136.31,58.79c-.46-.44-3.51.12-4.57-.08-.49,3.36,7.09,4.48,8.45,3.06,2.49-2.6-3.69-.58-3.84-.75-.2-.23.28-1.91-.05-2.23ZM178.37,61.02c-1.05-1.23-1.62,1.08-2.17,1.49-.62.46-2.18-.88-1.69,1.98.33,1.92,2.27,2.83,3.51,1.14.14-.19.5-4.43.35-4.61ZM291.01,61.79v.77c.5-.26.5-.51,0-.77ZM638.83,62.63c-2.92-1.87-2.86,3.38-1.06,3.76,2.24.48,1.92-3.21,1.06-3.76ZM559.93,66.17c-.16-.12-3.53-4.4-2.5-.94.52,1.75,4.56,5.82,6.14,4.24,2.05-2.06-2.87-2.74-3.63-3.3ZM971.82,65.63c-4.17.51-7.75,3.47-8.45,7.68,4.06,1.44,4.17-3.52,4.63-3.84.3-.22,4.86,2.9,3.82-3.84ZM646.21,66.4v.77c.5-.26.5-.51,0-.77ZM126.61,71.53c-.85.88-3.97,2.08-3.6,3.69,3.42,5.68,11.49-3.17,10.76-6.11-.59-2.38-2.86-.04-3.59.12-.69.15-1.64-.5-2.1-.37-1.3.38-.9,2.1-1.47,2.68ZM588.73,71.52c-.93,1.09-6.3,3.33-2.07,5.29,3.43,1.59,9.54-6.03,9.2-7.7-.69-3.45-3.37.31-3.6.36-.98.24-2.76-.33-3.26.11-.22.19.11,1.49-.27,1.94ZM178.25,71.13c-3.03-1.78-4.13,2.1-2.23,3.39,3.73,2.54,3.65-2.55,2.23-3.39ZM1039.47,71.01c-1.23.7-2.73.08-3.62.2-5.01.7,3.16,7.74,3.62-.2ZM189.9,81.01c-1.48-.13-2.98-.58-4.25-.62-.69-.02-1.77.79-1.89.63-.23-.28.47-3.1-1.17-3.84-2.97-1.35-2.32,8.07-.69,8.51,1.95.52,6.28-1.65,8.77-.83-.34-1.2-.44-2.72-.77-3.84,2.33.21,4.6.52,6.92.76,1.54-1.43-5.22-5.96-6.52-6.17-3.4-.53-.48,5.1-.4,5.4ZM1040.25,81.01c-1.37-.26-5.44-3.22-3.84.39.62,1.4,3.34.12,1.54,3.45h3.45s-.38-3.84-.38-3.84c1.99.36,4.74.06,6.92.77-.36-5.06-10.36-9.4-7.68-.77ZM145.93,77.38c-.83-1.18-5.6-.66-6.01-.21-.3.33.84,2.01.71,2.64-.25,1.24-3,.55-2.24,2.73,1.16.45,4.94-1.21,5.37-.76.7.73-1.81,4.45.4,5.37,1.45.61,1.01-1.57,1.53-1.56,1.49.03,5.76,3.27,8.65,2.15,1.3-.51,4.11-6.57,3.26-7.49-.26-.29-7.06-2.14-7.45-2.15-1.03-.01-3.28,2.19-4.08,1.37-.14-.14.26-1.51-.15-2.09ZM588.93,78.7c-.55-.57-3.34.83-4.16.64-1.32-.3-1.37-3.45-3.52-2.95-.24,1.61.53,4.98-.34,6.2-1.13,1.58-6.15-.57-5.81,3.02,2.08-.15,9.59.48,10.76-.78,1.86-1.99-3.61-.82-2.3-3.06h5.38c-.13-.75.19-2.87,0-3.08ZM608.16,77.17c-.64-.89-6.43-.56-6.94,0-.31.35.85,1.96.71,2.64-.25,1.24-3,.55-2.24,2.73,2.64.71,3.9-1.05,6.14-1.53l-.76,6.14c1.37.48,1.9-1.26,2.66-1.27.96,0,6.95,2.96,8.73,1.91.32-.19,3.36-6.05,2.89-6.81-.73-1.15-5.67-1.8-6.86-1.55-.96.2.03,1.89-1.26,1.57.51-3.95-1.07-1.14-3.85-1.54-.27-.21,1.1-1.84.78-2.29ZM127.62,78.7c-1.62-.79-3.58,1.26-4.23,1.24s-2.12-2.01-4.22-.47c-.27,1.29,2.82.22,1.17,2.32-1.79,2.26-6.59.32-6.55,3.82.41.35,10.09-.15,10.76-.77,1.77-1.65-4.23-1.63-3.07-3.83,3.56.18,7.1,2.92,6.14-2.31ZM451.31,81.01c-1.12.12-4.86-1.31-5.38-.77-2.12,2.21,5.61,5.03,5.38.77ZM6.92,84.85c1.04-2.83-3.84-5.43-4.6-2.68s2.72,2.95,4.6,2.68ZM22.3,83.31c-2.38-2.53-7.61-1.16-4.66,2.74.49.65,6.92,5.56,6.22,2.24-.31-1.46-1.57-2.04-1.55-4.22,1.52-.74,5.8,3.29,5.39.38-.52-3.71-4.21-4.86-5.39-1.15ZM1161.71,81.78c-2.58-2.1-1.02,4.91.78,3.07.14-.15-.65-2.97-.78-3.07ZM687.34,82.55c-2.16-.56-3.94,4.9-1.91,5.37l1.91-5.37ZM1168.64,83.32c-2.88-.54-4.4,1.01-4.61,3.82l4.61,1.55c.36-1.67-1.51-1.9-1.56-3.45-.02-.62,2.4.12,1.56-1.92ZM608.76,90.81c-1.32.46-4.92-3.78-5.98-.94-.45,1.2,1.56,1.79,2.39,2.17,2.04.93,3.73,1.57,6.06,1.28,0-2.3.77-5.07-2.11-3.56-.17.09-.19,1-.36,1.06ZM149.92,89.47l-6.91,1.91c3.07,2.8,7.27,3.39,6.91-1.91ZM765,90.24l-4.61.77.78,3.07c2.21.07,3.99-1.57,3.83-3.84ZM24.6,94.85c-2.94-.2-2.56-.15-1.54,2.3l-3.08,1.54c1.68-.78,5.2,2.3,6.15,1.54,1.36-1.09-1.54-1.72-1.79-2.49-.33-1.01.19-1.91.26-2.89ZM146.08,94.85c-1.48-1.3-5.19,1.62-4.61,3.84,1.7.96,5.53-3.03,4.61-3.84ZM55.89,98.15c-.56-.68-3.77-2.31-4.37-1.76l.76,3.06-3.84-.76c-.82,3.44,1.31,2.83,3.43,4.7l4.98-1.67c.19-1.24-.16-2.6-.96-3.57Z"/><path class="cls-3" d="M871.1,48.72c.47.51-.02,3.12-1.78,2.95-1.19-.11-8.25-3.75-6.68-5.26,1.22.4,8.16,1.99,8.45,2.31Z"/><path class="cls-3" d="M989.5,41.01c-.65.92-7,2.26-7.69,1.55.1-.63-.16-2.09,0-2.29.46-.56,10.04-2.61,7.68.74Z"/><path class="cls-3" d="M869.18,44.1c.5.26.5.51,0,.77v-.77Z"/><rect class="cls-3" x="413.64" y="57.95" width="1.53" height="2.3"/><path class="cls-1" d="M153.76,61.79c.84.84-.69,2.37-1.53,1.53s.69-2.37,1.53-1.53Z"/><path class="cls-1" d="M151.46,61.78c-1.61.22-1.75.08-1.53-1.53l1.53,1.53Z"/><path class="cls-3" d="M115.71,24.11c.5.26.5.51,0,.77v-.77Z"/><path class="cls-1" d="M149.54,66.4c.5.26.5.51,0,.77v-.77Z"/><path class="cls-3" d="M43.82,57.18c.29.29-1.74,5.24-2.32,5.74-2.73,2.35-8.98.89-4.48-2.21,2.88-1.99,1.74-2.04,2.33-2.59.46-.43,3.48-.58,4.47-.95Z"/><path class="cls-3" d="M69.58,44.1c.5.26.5.51,0,.77v-.77Z"/><path class="cls-1" d="M21.14,72.55c.5.26.5.51,0,.77v-.77Z"/><path class="cls-1" d="M54.97,84.85c.5.26.5.51,0,.77v-.77Z"/><path class="cls-3" d="M279.09,36.42c.84.84-.69,2.37-1.53,1.53s.69-2.37,1.53-1.53Z"/><path class="cls-1" d="M1039.47,58.72c.52.27-.45,1.31-1.53.75-.52-.27.45-1.31,1.53-.75Z"/><path class="cls-1" d="M53.43,99.46c.5.26.5.51,0,.77v-.77Z"/></svg>